<svg xmlns="http://www.w3.org/2000/svg" viewBox="0 0 24 24"><rect width="24" height="24" style="fill:none"/><path d="M17,12.87a6,6,0,0,0-6,6A6,6,0,0,0,17,12.87Z"/><path d="M5,12.87a6,6,0,0,0,6,6A6,6,0,0,0,5,12.87Z"/><path d="M7,10.9a1.56,1.56,0,0,0,1.56,1.56,1.54,1.54,0,0,0,.89-.28v.12a1.56,1.56,0,1,0,3.12,0v-.12a1.59,1.59,0,0,0,.89.28,1.56,1.56,0,0,0,.67-3,1.56,1.56,0,1,0-1.56-2.68V6.69a1.56,1.56,0,0,0-3.12,0v.12a1.52,1.52,0,0,0-.89-.28,1.56,1.56,0,0,0-.67,3A1.55,1.55,0,0,0,7,10.9Zm4-3A1.56,1.56,0,1,1,9.44,9.49,1.56,1.56,0,0,1,11,7.93Z"/><path d="M21.47,20.64,20.82,20A2.07,2.07,0,0,0,19,16.93H19l.64.65-.63.63-1.67-1.68L19,14.85l.63.63-.57.57a2.94,2.94,0,0,1,2.45,4.59Z"/><path d="M20.71,21.47,19,23.15l-.63-.63L19,22a3,3,0,0,1-2.44-4.6l.65.66a2.07,2.07,0,0,0,.35,2.44,2,2,0,0,0,1.52.6l-.64-.64.63-.63Z"/><path d="M3,2A2,2,0,0,0,1,4V20a2,2,0,0,0,2,2H15V20H3V4H19V14h2V4a2,2,0,0,0-2-2"/></svg>